
<svg version="1.1" xmlns="http://www.w3.org/2000/svg" width="27" height="32" viewBox="0 0 27 32">
<title>Group-1</title>
<path fill="#717171" d="M19.105 0.197c-1.484 0.171-3.584 1.48-4.627 2.88-0.601 0.802-0.955 1.568-1.261 2.72l-0.153 0.576 0.007 0.613c0.007 0.335 0.025 0.649 0.044 0.7 0.047 0.12 0.139 0.138 0.78 0.142 0.533 0.003 0.565 0 1.021-0.135 1.218-0.353 2.111-0.887 2.745-1.641 0.153-0.187 0.383-0.434 0.503-0.558 0.401-0.393 0.915-1.269 1.2-2.027 0.284-0.763 0.411-1.47 0.448-2.476l0.021-0.645-0.095-0.095c-0.106-0.106-0.165-0.109-0.635-0.055z"></path>
<path fill="#717171" d="M18.765 7.733c-0.721 0.037-2.665 0.576-4.061 1.123-0.845 0.332-0.845 0.332-1.013 0.361-0.292 0.047-1.007-0.161-2.235-0.657-0.653-0.259-1.324-0.455-2.315-0.681-0.415-0.091-1.105-0.103-1.404-0.019-0.12 0.033-0.499 0.109-0.842 0.168-0.737 0.131-1.152 0.259-1.707 0.532-1.673 0.817-2.814 1.991-3.718 3.828-0.357 0.696-0.67 1.508-0.896 2.356l-0.020 0.087c-0.325 1.249-0.332 3.649-0.015 5.103 0.037 0.179 0.069 0.39 0.069 0.473 0 0.175 0.033 0.307 0.339 1.513 0.284 1.116 0.255 1.025 0.798 2.388 0.762 1.914 1.003 2.337 2.56 4.485 0.637 0.879 0.962 1.28 1.433 1.757 0.492 0.503 0.889 0.795 1.451 1.072 0.635 0.309 0.911 0.379 1.495 0.375 0.747 0 1.349-0.153 2.493-0.635 0.723-0.303 0.77-0.317 2.083-0.587 0.393-0.084 0.758-0.077 1.312 0.015 0.19 0.029 0.474 0.073 0.627 0.095 0.31 0.044 0.623 0.146 1.433 0.47 0.977 0.393 1.665 0.569 2.387 0.613 1.050 0.065 2.064-0.401 3.147-1.44 1.105-1.068 2.136-2.53 3.179-4.503 0.28-0.533 0.729-1.623 0.805-1.951 0.033-0.131 0.087-0.295 0.127-0.361 0.034-0.057 0.058-0.123 0.069-0.194l0-0.003c0-0.131-0.266-0.339-0.736-0.576-0.887-0.455-1.757-1.235-2.345-2.114-0.419-0.631-0.842-1.575-0.948-2.133-0.178-0.919-0.229-1.925-0.127-2.625 0.025-0.183 0.117-0.565 0.204-0.857 0.376-1.265 0.635-1.772 1.221-2.399 0.179-0.186 0.325-0.357 0.325-0.372 0-0.061 0.893-0.809 1.112-0.929 0.129-0.073 0.24-0.153 0.341-0.243l-0.002 0.002c0.2-0.197 0.171-0.273-0.332-0.864-0.675-0.791-1.524-1.44-2.523-1.925-0.624-0.303-1.053-0.452-1.655-0.576-0.617-0.131-1.535-0.207-2.119-0.175z"></path>
</svg>
